<svg width="12" height="12" viewBox="0 0 12 12" fill="none" xmlns="http://www.w3.org/2000/svg">
<g clip-path="url(#clip0_2083_894)">
<path d="M8.2942 5.29411L6.00009 6.70587V5.57646C6.00009 5.29411 5.68244 5.11763 5.47067 5.29411L3.17656 6.70587V5.57646C3.17656 5.29411 2.85891 5.11763 2.64715 5.29411L0.529498 6.59999C0.423616 6.67058 0.353027 6.77646 0.353027 6.88234V11.2941C0.353027 11.4706 0.529498 11.647 0.705969 11.647H8.47067C8.64715 11.647 8.82362 11.4706 8.82362 11.2941V5.57646C8.85891 5.29411 8.54126 5.11763 8.2942 5.29411ZM2.85891 8.11763C2.85891 8.29411 2.68244 8.47058 2.50597 8.47058H1.80009C1.62362 8.47058 1.44714 8.29411 1.44714 8.11763V7.76469C1.44714 7.58822 1.62362 7.41175 1.80009 7.41175H2.50597C2.68244 7.41175 2.85891 7.58822 2.85891 7.76469V8.11763ZM5.3295 8.11763C5.3295 8.29411 5.15303 8.47058 4.97656 8.47058H4.27067C4.0942 8.47058 3.91773 8.29411 3.91773 8.11763V7.76469C3.91773 7.58822 4.0942 7.41175 4.27067 7.41175H4.97656C5.15303 7.41175 5.3295 7.58822 5.3295 7.76469V8.11763ZM7.80009 8.11763C7.80009 8.29411 7.62362 8.47058 7.44715 8.47058H6.74126C6.56479 8.47058 6.38832 8.29411 6.38832 8.11763V7.76469C6.38832 7.58822 6.56479 7.41175 6.74126 7.41175H7.44715C7.62362 7.41175 7.80009 7.58822 7.80009 7.76469V8.11763Z" fill="white"/>
<path d="M10.306 0.670583C10.2707 0.494112 10.1295 0.352936 9.95303 0.352936H8.82362C8.64715 0.352936 8.50597 0.494112 8.47068 0.670583L7.97656 4.65882C8.15303 4.55294 8.3295 4.51764 8.50597 4.51764C9.10597 4.51764 9.5648 4.97647 9.5648 5.57647V11.2941C9.5648 11.4 9.5295 11.5412 9.49421 11.6471H11.2589C11.4707 11.6471 11.6472 11.4706 11.6119 11.2588L10.306 0.670583Z" fill="white"/>
</g>
<defs>
<clipPath id="clip0_2083_894">
<rect width="12" height="12" fill="white"/>
</clipPath>
</defs>
</svg>
