<svg width="12" height="12" viewBox="0 0 12 12" fill="none" xmlns="http://www.w3.org/2000/svg">
<path d="M2.23828 2.4375H9.73828C9.82589 2.43746 9.91341 2.44301 10.0003 2.45414C9.97086 2.24737 9.89983 2.0487 9.79152 1.87012C9.68321 1.69154 9.53986 1.53674 9.3701 1.41506C9.20035 1.29338 9.00771 1.20734 8.80381 1.16212C8.5999 1.1169 8.38895 1.11344 8.18367 1.15195L2.01562 2.205H2.00859C1.62142 2.27904 1.27712 2.49809 1.04602 2.81742C1.3942 2.56976 1.811 2.43695 2.23828 2.4375ZM9.73828 3H2.23828C1.84059 3.00043 1.45931 3.15861 1.1781 3.43982C0.89689 3.72103 0.738716 4.10231 0.738281 4.5V9C0.738716 9.39769 0.89689 9.77897 1.1781 10.0602C1.45931 10.3414 1.84059 10.4996 2.23828 10.5H9.73828C10.136 10.4996 10.5173 10.3414 10.7985 10.0602C11.0797 9.77897 11.2378 9.39769 11.2383 9V4.5C11.2378 4.10231 11.0797 3.72103 10.7985 3.43982C10.5173 3.15861 10.136 3.00043 9.73828 3ZM8.625 7.5C8.47666 7.5 8.33166 7.45601 8.20832 7.3736C8.08499 7.29119 7.98886 7.17406 7.93209 7.03701C7.87532 6.89997 7.86047 6.74917 7.88941 6.60368C7.91835 6.45819 7.98978 6.32456 8.09467 6.21967C8.19956 6.11478 8.3332 6.04335 8.47868 6.01441C8.62417 5.98547 8.77497 6.00032 8.91201 6.05709C9.04906 6.11385 9.16619 6.20998 9.2486 6.33332C9.33101 6.45666 9.375 6.60166 9.375 6.75C9.375 6.94891 9.29598 7.13968 9.15533 7.28033C9.01468 7.42098 8.82391 7.5 8.625 7.5Z" fill="#FEAC3E"/>
<path d="M0.75 6.08203V3.75C0.75 3.24211 1.03125 2.39062 2.00742 2.20617C2.83594 2.05078 3.65625 2.05078 3.65625 2.05078C3.65625 2.05078 4.19531 2.42578 3.75 2.42578C3.30469 2.42578 3.31641 3 3.75 3C4.18359 3 3.75 3.55078 3.75 3.55078L2.00391 5.53125L0.75 6.08203Z" fill="#FEAC3E"/>
</svg>
