<svg width="221" height="207" viewBox="0 0 221 207" fill="none" xmlns="http://www.w3.org/2000/svg">
<path d="M113.132 0.397629C126.727 0.397629 132.473 4.59287 132.473 4.59287L138.952 28.14H113.132H87.3127L93.7915 4.59287C93.7915 4.59287 99.5378 0.397629 113.132 0.397629Z" fill="url(#paint0_linear_2101_2918)"/>
<path d="M187.907 31.3703C197.519 40.9827 198.617 48.013 198.617 48.013L186.548 69.2452L168.29 50.9873L150.032 32.7304L171.264 20.6617C171.264 20.6617 178.295 21.7578 187.907 31.3703Z" fill="url(#paint1_linear_2101_2918)"/>
<path d="M72.1621 30.4164L55.0013 20.6617C55.0013 20.6617 47.971 21.7588 38.3585 31.3713C28.746 40.9837 27.649 48.0141 27.649 48.0141L40.5739 67.817C40.9092 67.1009 58.3402 36.9216 72.1621 30.4164Z" fill="url(#paint2_linear_2101_2918)"/>
<path d="M43.9403 60.1193C42.505 62.9351 41.2921 65.8047 40.257 68.7048L57.9745 50.9873L76.2324 32.7304L72.1621 30.4164C60.4703 37.142 50.5237 47.2055 43.9403 60.1193Z" fill="url(#paint3_linear_2101_2918)"/>
<path d="M70.7634 74.9662C79.0909 60.488 94.6986 50.7323 112.601 50.7323C127.015 50.7323 139.945 57.0587 148.789 67.0775C140.076 58.94 128.385 53.9504 115.522 53.9504C102.636 53.9504 90.9259 58.9583 82.2083 67.1222C90.7045 60.3804 101.443 56.3436 113.131 56.3436C128.83 56.3436 142.824 63.6157 151.952 74.9662H193.847C181.332 42.5887 149.911 18.6566 113.13 19.6145C72.9616 20.6607 52.5806 43.1647 43.9382 60.1193C41.477 64.9484 39.6333 69.9268 38.3382 74.9662H70.7634Z" fill="url(#paint4_linear_2101_2918)"/>
<path d="M113.132 47.2908C92.8305 47.2908 75.0297 58.3498 64.9967 74.9662H70.7634C79.0909 60.488 94.6986 50.7323 112.601 50.7323C127.015 50.7323 139.945 57.0587 148.789 67.0775C140.076 58.94 128.385 53.9504 115.522 53.9504C102.636 53.9504 90.9259 58.9583 82.2083 67.1222C90.7045 60.3804 101.443 56.3436 113.131 56.3436C128.83 56.3436 142.824 63.6157 151.952 74.9662H161.266C151.235 58.3498 133.434 47.2908 113.132 47.2908Z" fill="url(#paint5_linear_2101_2918)"/>
<path d="M171.406 50.4824C157.061 34.7031 137.267 26.8439 117.498 27.1334C135.077 28.5717 152.175 36.4056 164.975 50.4865C171.646 57.8246 176.502 66.1674 179.602 74.9662H185.975C182.907 66.1633 178.073 57.8165 171.406 50.4824Z" fill="url(#paint6_linear_2101_2918)"/>
<path d="M220.288 77.1735H0.28952L23.6234 75.1927C81.0341 70.3199 138.6 70.2986 196.012 75.1307L220.288 77.1735Z" fill="url(#paint7_linear_2101_2918)"/>
<path d="M113.132 206.492C99.5378 206.492 93.7915 202.297 93.7915 202.297L87.3127 178.75H113.132H138.953L132.474 202.297C132.474 202.297 126.727 206.492 113.132 206.492Z" fill="url(#paint8_linear_2101_2918)"/>
<path d="M38.3575 175.52C28.745 165.907 27.6479 158.877 27.6479 158.877L39.7166 137.645L57.9745 155.903L76.2314 174.161L54.9993 186.229C55.0013 186.229 47.971 185.132 38.3575 175.52Z" fill="url(#paint9_linear_2101_2918)"/>
<path d="M181.946 150.153C184.057 146.447 185.782 142.628 187.174 138.747L186.548 137.646L168.29 155.904L150.033 174.162L155.103 177.043C165.941 170.854 175.322 161.786 181.946 150.153Z" fill="url(#paint10_linear_2101_2918)"/>
<path d="M187.563 137.645C186.869 139.076 169.51 171.897 154.014 176.424L169.558 186.07C169.558 186.07 178.293 185.132 187.906 175.52C197.518 165.907 198.616 158.877 198.616 158.877L187.563 137.645Z" fill="url(#paint11_linear_2101_2918)"/>
<path d="M155.656 131.923C152.798 135.817 149.384 139.402 145.404 142.539C132.566 152.658 116.609 156.1 101.699 153.385C113.339 154.363 125.306 151.677 135.735 145.108C128.95 148.575 121.275 150.545 113.131 150.545C97.4321 150.545 83.4375 143.273 74.3105 131.923H32.4252C44.9337 164.301 76.3381 187.275 113.131 187.275C133.882 187.275 152.921 179.963 167.829 167.786C173.293 162.811 178.09 156.923 181.945 150.153C185.282 144.292 187.687 138.16 189.244 131.923H155.656Z" fill="url(#paint12_linear_2101_2918)"/>
<path d="M155.656 131.923C152.798 135.817 149.384 139.402 145.404 142.539C132.566 152.658 116.609 156.1 101.699 153.385C113.339 154.363 125.306 151.677 135.735 145.108C128.95 148.575 121.275 150.545 113.131 150.545C97.4321 150.545 83.4375 143.273 74.3106 131.923H64.9967C75.0287 148.54 92.8305 159.599 113.132 159.599C133.434 159.599 151.235 148.54 161.268 131.923H155.656Z" fill="url(#paint13_linear_2101_2918)"/>
<path d="M93.1383 164.979C77.4565 159.054 63.7981 147.688 55.2542 131.924H50.0706C59.804 148.716 75.5153 160.196 93.1383 164.979Z" fill="url(#paint14_linear_2101_2918)"/>
<path d="M0.28952 129.717H220.29L196.956 131.697C139.545 136.57 81.9788 136.591 24.567 131.759L0.28952 129.717Z" fill="url(#paint15_linear_2101_2918)"/>
<path d="M22.6279 90.9548H8.2046L0.993469 103.445L8.2046 115.936H22.6279L29.839 103.445L22.6279 90.9548ZM15.4167 110.451C11.5476 110.451 8.40979 107.314 8.40979 103.445C8.40979 99.5759 11.5466 96.4381 15.4167 96.4381C19.2859 96.4381 22.4227 99.5748 22.4227 103.445C22.4227 107.315 19.2859 110.451 15.4167 110.451Z" fill="url(#paint16_linear_2101_2918)"/>
<path d="M212.373 90.9548H197.95L190.739 103.445L197.95 115.936H212.373L219.585 103.445L212.373 90.9548ZM205.161 110.451C201.292 110.451 198.155 107.314 198.155 103.445C198.155 99.5758 201.292 96.4381 205.161 96.4381C209.03 96.4381 212.167 99.5748 212.167 103.445C212.167 107.315 209.031 110.451 205.161 110.451Z" fill="url(#paint17_linear_2101_2918)"/>
<path d="M57.1567 113.939C55.8711 113.939 54.8117 113.719 53.9784 113.279C53.157 112.838 52.5142 112.207 52.05 111.386C51.5857 110.565 51.2643 109.583 51.0858 108.44C50.9072 107.297 50.8179 106.017 50.8179 104.601V101.655H54.7998V104.833C54.7998 106.821 54.9486 108.243 55.2462 109.1C55.5557 109.958 56.1925 110.386 57.1567 110.386C57.8114 110.386 58.2995 110.231 58.6209 109.922C58.9423 109.612 59.1506 109.118 59.2459 108.44C59.3411 107.761 59.3887 106.863 59.3887 105.744C59.3887 104.434 59.1387 103.285 58.6388 102.297C58.1507 101.298 57.4305 100.304 56.4782 99.3155L54.2998 97.1371C53.6927 96.4943 53.1094 95.8098 52.5499 95.0837C52.0024 94.3457 51.556 93.5183 51.2108 92.6017C50.8655 91.6851 50.6929 90.6436 50.6929 89.477C50.6929 87.87 50.8774 86.4891 51.2465 85.3344C51.6155 84.1798 52.2523 83.2989 53.157 82.6918C54.0736 82.0728 55.3533 81.7633 56.996 81.7633C58.2697 81.7633 59.2994 81.9776 60.0851 82.4061C60.8707 82.8227 61.4719 83.4239 61.8885 84.2095C62.3051 84.9952 62.5908 85.9356 62.7456 87.0307C62.9003 88.1259 62.9777 89.352 62.9777 90.709V92.6017H59.0852V90.4412C59.0852 89.2984 59.0316 88.3521 58.9245 87.6021C58.8292 86.8403 58.6328 86.2689 58.3352 85.888C58.0376 85.507 57.5912 85.3166 56.996 85.3166C56.4365 85.3166 55.9842 85.4475 55.639 85.7094C55.2938 85.9713 55.0438 86.376 54.889 86.9236C54.7343 87.4593 54.6569 88.1557 54.6569 89.0127C54.6569 89.7746 54.7462 90.4114 54.9248 90.9233C55.1152 91.4352 55.4009 91.9232 55.7818 92.3875C56.1747 92.8398 56.6508 93.3636 57.2103 93.9588L59.5315 96.4407C60.71 97.6906 61.6504 99.0417 62.3528 100.494C63.067 101.946 63.4241 103.601 63.4241 105.458C63.4241 107.255 63.2396 108.785 62.8706 110.047C62.5016 111.309 61.8647 112.273 60.96 112.939C60.0553 113.606 58.7876 113.939 57.1567 113.939ZM73.2548 113.582L77.8973 82.1561H83.129L88.1465 113.582H84.254L83.4147 107.743H77.9866L77.2188 113.582H73.2548ZM78.4151 104.404H82.9326L80.6114 88.1378H80.5578L78.4151 104.404ZM99.4057 113.582V82.1561H103.548V95.298H108.28V82.1561H112.423V113.582H108.28V98.762H103.548V113.582H99.4057ZM127.896 113.582L123.878 82.1561H127.646L130.163 105.529L133.467 82.1561H136.841L140.198 105.529L142.377 82.1561H146.144L142.484 113.582H138.359L135.234 91.3518L131.967 113.582H127.896ZM155.136 113.582L159.778 82.1561H165.01L170.027 113.582H166.135L165.296 107.743H159.867L159.1 113.582H155.136ZM160.296 104.404H164.814L162.492 88.1378H162.439L160.296 104.404Z" fill="url(#paint18_linear_2101_2918)"/>
<path d="M52.9434 126.297C52.4778 126.297 52.0995 126.186 51.8086 125.964C51.5176 125.742 51.3048 125.417 51.1702 124.988C51.0356 124.558 50.9683 124.038 50.9683 123.427V119.352C50.9683 118.919 50.9993 118.528 51.0611 118.179C51.1229 117.826 51.2284 117.522 51.3775 117.268C51.5303 117.013 51.7358 116.818 51.9941 116.684C52.2559 116.546 52.5851 116.476 52.9816 116.476C53.3489 116.476 53.6545 116.54 53.8982 116.667C54.1455 116.791 54.3401 116.971 54.482 117.208C54.6275 117.444 54.7293 117.726 54.7875 118.053C54.8493 118.381 54.8802 118.744 54.8802 119.144V120.317H53.6472V119.183C53.6472 118.637 53.6054 118.231 53.5217 117.966C53.4381 117.7 53.258 117.568 52.9816 117.568C52.687 117.568 52.4887 117.706 52.3869 117.982C52.2887 118.259 52.2396 118.657 52.2396 119.177V123.471C52.2396 123.882 52.2596 124.217 52.2996 124.475C52.3396 124.729 52.4105 124.917 52.5124 125.037C52.6142 125.153 52.7597 125.211 52.9488 125.211C53.2289 125.211 53.4144 125.075 53.5054 124.802C53.5999 124.526 53.6472 124.078 53.6472 123.46V122.265H54.8966V123.444C54.8966 124.073 54.8348 124.6 54.7111 125.026C54.5874 125.448 54.3819 125.766 54.0946 125.981C53.8109 126.192 53.4272 126.297 52.9434 126.297ZM64.809 126.292C64.3216 126.292 63.9305 126.186 63.6359 125.975C63.3413 125.764 63.1285 125.45 62.9976 125.031C62.8666 124.609 62.8012 124.084 62.8012 123.455V119.155C62.8012 118.602 62.863 118.126 62.9867 117.726C63.114 117.322 63.3249 117.011 63.6196 116.793C63.9142 116.571 64.3179 116.46 64.8308 116.46C65.2163 116.46 65.5346 116.524 65.7856 116.651C66.0402 116.775 66.2402 116.955 66.3857 117.191C66.5312 117.424 66.6331 117.706 66.6913 118.037C66.7531 118.368 66.784 118.741 66.784 119.155V123.455C66.784 124.084 66.7204 124.609 66.593 125.031C66.4694 125.45 66.2621 125.764 65.9711 125.975C65.6837 126.186 65.2964 126.292 64.809 126.292ZM64.809 125.195C65.0054 125.195 65.1545 125.139 65.2563 125.026C65.3582 124.913 65.4273 124.729 65.4637 124.475C65.5 124.22 65.5182 123.884 65.5182 123.465V119.09C65.5182 118.581 65.4746 118.199 65.3873 117.944C65.3 117.686 65.1145 117.557 64.8308 117.557C64.5362 117.557 64.3361 117.682 64.2306 117.933C64.1251 118.184 64.0724 118.568 64.0724 119.084V123.465C64.0724 123.887 64.0906 124.226 64.127 124.48C64.1633 124.731 64.2343 124.913 64.3397 125.026C64.4489 125.139 64.6053 125.195 64.809 125.195ZM74.9013 126.183V116.58H77.0837C77.5893 116.58 77.9639 116.675 78.2076 116.864C78.455 117.049 78.6168 117.328 78.6932 117.699C78.7696 118.066 78.8078 118.522 78.8078 119.068C78.8078 119.65 78.7478 120.11 78.6277 120.448C78.5114 120.783 78.2786 121.003 77.9294 121.109C78.1003 121.138 78.2422 121.21 78.3549 121.327C78.4713 121.44 78.5623 121.614 78.6277 121.851C78.6969 122.083 78.746 122.392 78.7751 122.778C78.8042 123.16 78.8187 123.636 78.8187 124.207C78.8187 124.258 78.8187 124.353 78.8187 124.491C78.8187 124.629 78.8187 124.786 78.8187 124.96C78.8223 125.135 78.826 125.31 78.8296 125.484C78.8369 125.655 78.8442 125.804 78.8514 125.932C78.8623 126.059 78.8751 126.143 78.8896 126.183H77.6239C77.6129 126.157 77.602 126.077 77.5911 125.942C77.5838 125.804 77.5766 125.626 77.5693 125.408C77.562 125.19 77.5566 124.944 77.5529 124.671C77.5529 124.395 77.5529 124.104 77.5529 123.798C77.5529 123.489 77.5529 123.176 77.5529 122.86C77.5529 122.529 77.5347 122.278 77.4984 122.107C77.462 121.932 77.3874 121.812 77.2747 121.747C77.1619 121.678 76.9891 121.636 76.7564 121.621L76.1671 121.589V126.183H74.9013ZM76.1726 120.634H76.8327C77.0292 120.634 77.1783 120.594 77.2801 120.514C77.3856 120.43 77.4565 120.272 77.4929 120.039C77.5329 119.806 77.5529 119.463 77.5529 119.008V118.948C77.5529 118.566 77.5347 118.277 77.4984 118.08C77.462 117.884 77.3892 117.751 77.2801 117.682C77.1746 117.609 77.0128 117.573 76.7946 117.573H76.1726V120.634ZM86.8542 126.183V116.58H88.9002C89.2821 116.58 89.5949 116.642 89.8386 116.766C90.0823 116.886 90.2714 117.064 90.406 117.3C90.5406 117.537 90.6333 117.824 90.6843 118.162C90.7388 118.501 90.7661 118.884 90.7661 119.314V119.483C90.7661 120.116 90.7134 120.65 90.6079 121.087C90.506 121.52 90.3224 121.849 90.0568 122.074C89.7913 122.296 89.413 122.407 88.922 122.407H88.12V126.183H86.8542ZM88.12 121.354H88.731C88.9493 121.354 89.113 121.296 89.2221 121.179C89.3348 121.059 89.4094 120.863 89.4458 120.59C89.4858 120.314 89.5058 119.943 89.5058 119.477V119.292C89.5058 118.713 89.4585 118.282 89.3639 117.999C89.273 117.715 89.0693 117.573 88.7529 117.573H88.12V121.354ZM100.438 126.292C99.951 126.292 99.56 126.186 99.2654 125.975C98.9707 125.764 98.758 125.45 98.627 125.031C98.4961 124.609 98.4306 124.084 98.4306 123.455V119.155C98.4306 118.602 98.4924 118.126 98.6161 117.726C98.7434 117.322 98.9544 117.011 99.249 116.793C99.5436 116.571 99.9474 116.46 100.46 116.46C100.846 116.46 101.164 116.524 101.415 116.651C101.67 116.775 101.87 116.955 102.015 117.191C102.161 117.424 102.262 117.706 102.321 118.037C102.383 118.368 102.413 118.741 102.413 119.155V123.455C102.413 124.084 102.35 124.609 102.222 125.031C102.099 125.45 101.891 125.764 101.6 125.975C101.313 126.186 100.926 126.292 100.438 126.292ZM100.438 125.195C100.635 125.195 100.784 125.139 100.886 125.026C100.988 124.913 101.057 124.729 101.093 124.475C101.129 124.22 101.148 123.884 101.148 123.465V119.09C101.148 118.581 101.104 118.199 101.017 117.944C100.929 117.686 100.744 117.557 100.46 117.557C100.166 117.557 99.9655 117.682 99.8601 117.933C99.7546 118.184 99.7018 118.568 99.7018 119.084V123.465C99.7018 123.887 99.72 124.226 99.7564 124.48C99.7928 124.731 99.8637 124.913 99.9692 125.026C100.078 125.139 100.235 125.195 100.438 125.195ZM110.531 126.183V116.58H112.713C113.219 116.58 113.593 116.675 113.837 116.864C114.084 117.049 114.246 117.328 114.323 117.699C114.399 118.066 114.437 118.522 114.437 119.068C114.437 119.65 114.377 120.11 114.257 120.448C114.141 120.783 113.908 121.003 113.559 121.109C113.73 121.138 113.872 121.21 113.984 121.327C114.101 121.44 114.192 121.614 114.257 121.851C114.326 122.083 114.375 122.392 114.404 122.778C114.434 123.16 114.448 123.636 114.448 124.207C114.448 124.258 114.448 124.353 114.448 124.491C114.448 124.629 114.448 124.786 114.448 124.96C114.452 125.135 114.455 125.31 114.459 125.484C114.466 125.655 114.474 125.804 114.481 125.932C114.492 126.059 114.505 126.143 114.519 126.183H113.253C113.242 126.157 113.231 126.077 113.221 125.942C113.213 125.804 113.206 125.626 113.199 125.408C113.191 125.19 113.186 124.944 113.182 124.671C113.182 124.395 113.182 124.104 113.182 123.798C113.182 123.489 113.182 123.176 113.182 122.86C113.182 122.529 113.164 122.278 113.128 122.107C113.091 121.932 113.017 121.812 112.904 121.747C112.791 121.678 112.619 121.636 112.386 121.621L111.797 121.589V126.183H110.531ZM111.802 120.634H112.462C112.659 120.634 112.808 120.594 112.91 120.514C113.015 120.43 113.086 120.272 113.122 120.039C113.162 119.806 113.182 119.463 113.182 119.008V118.948C113.182 118.566 113.164 118.277 113.128 118.08C113.091 117.884 113.019 117.751 112.91 117.682C112.804 117.609 112.642 117.573 112.424 117.573H111.802V120.634ZM121.949 126.183L123.367 116.58H124.966L126.499 126.183H125.31L125.053 124.398H123.395L123.16 126.183H121.949ZM123.526 123.378H124.906L124.197 118.408H124.18L123.526 123.378ZM134.524 126.183V117.655H133.433V116.58H136.81V117.655H135.784V126.183H134.524ZM144.403 126.183V116.58H145.675V126.183H144.403ZM155.805 126.292C155.318 126.292 154.927 126.186 154.632 125.975C154.338 125.764 154.125 125.45 153.994 125.031C153.863 124.609 153.797 124.084 153.797 123.455V119.155C153.797 118.602 153.859 118.126 153.983 117.726C154.11 117.322 154.321 117.011 154.616 116.793C154.91 116.571 155.314 116.46 155.827 116.46C156.213 116.46 156.531 116.524 156.782 116.651C157.036 116.775 157.236 116.955 157.382 117.191C157.527 117.424 157.629 117.706 157.687 118.037C157.749 118.368 157.78 118.741 157.78 119.155V123.455C157.78 124.084 157.717 124.609 157.589 125.031C157.466 125.45 157.258 125.764 156.967 125.975C156.68 126.186 156.293 126.292 155.805 126.292ZM155.805 125.195C156.002 125.195 156.151 125.139 156.253 125.026C156.354 124.913 156.424 124.729 156.46 124.475C156.496 124.22 156.514 123.884 156.514 123.465V119.09C156.514 118.581 156.471 118.199 156.384 117.944C156.296 117.686 156.111 117.557 155.827 117.557C155.532 117.557 155.332 117.682 155.227 117.933C155.121 118.184 155.069 118.568 155.069 119.084V123.465C155.069 123.887 155.087 124.226 155.123 124.48C155.16 124.731 155.231 124.913 155.336 125.026C155.445 125.139 155.602 125.195 155.805 125.195ZM165.898 126.183V116.58H166.874L169.018 122.794L168.909 120.083V116.58H170.039V126.183H169.122L166.994 119.854L167.065 122.314V126.183H165.898Z" fill="url(#paint19_linear_2101_2918)"/>
<defs>
<linearGradient id="paint0_linear_2101_2918" x1="113.132" y1="0.338611" x2="113.132" y2="29.7539" gradientUnits="userSpaceOnUse">
<stop offset="0.0044" stop-color="#FFB83D"/>
<stop offset="0.4779" stop-color="#9A6200"/>
<stop offset="1" stop-color="#042640"/>
</linearGradient>
<linearGradient id="paint1_linear_2101_2918" x1="189.409" y1="29.8676" x2="167.899" y2="51.3779" gradientUnits="userSpaceOnUse">
<stop offset="0.0044" stop-color="#FFB83D"/>
<stop offset="0.4779" stop-color="#9A6200"/>
<stop offset="1" stop-color="#042640"/>
</linearGradient>
<linearGradient id="paint2_linear_2101_2918" x1="36.5205" y1="29.579" x2="64.7893" y2="57.4061" gradientUnits="userSpaceOnUse">
<stop offset="0.0044" stop-color="#FFB83D"/>
<stop offset="0.4779" stop-color="#9A6200"/>
<stop offset="1" stop-color="#042640"/>
</linearGradient>
<linearGradient id="paint3_linear_2101_2918" x1="58.245" y1="25.1108" x2="58.245" y2="68.9999" gradientUnits="userSpaceOnUse">
<stop offset="0.0044" stop-color="#FFB83D"/>
<stop offset="0.4779" stop-color="#9A6200"/>
<stop offset="1" stop-color="#042640"/>
</linearGradient>
<linearGradient id="paint4_linear_2101_2918" x1="116.095" y1="22.8702" x2="116.095" y2="89.8845" gradientUnits="userSpaceOnUse">
<stop offset="0.0044" stop-color="#FFB83D"/>
<stop offset="0.4779" stop-color="#9A6200"/>
<stop offset="1" stop-color="#042640"/>
</linearGradient>
<linearGradient id="paint5_linear_2101_2918" x1="113.132" y1="256.182" x2="113.132" y2="6.82617" gradientUnits="userSpaceOnUse">
<stop offset="0.0044" stop-color="#FFB83D"/>
<stop offset="0.4779" stop-color="#9A6200"/>
<stop offset="1" stop-color="#042640"/>
</linearGradient>
<linearGradient id="paint6_linear_2101_2918" x1="171.116" y1="-43.0221" x2="150.931" y2="54.9607" gradientUnits="userSpaceOnUse">
<stop stop-color="white"/>
<stop offset="1" stop-color="white" stop-opacity="0"/>
</linearGradient>
<linearGradient id="paint7_linear_2101_2918" x1="110.289" y1="71.8221" x2="110.289" y2="84.3922" gradientUnits="userSpaceOnUse">
<stop offset="0.0044" stop-color="#FFB83D"/>
<stop offset="0.4779" stop-color="#9A6200"/>
<stop offset="1" stop-color="#042640"/>
</linearGradient>
<linearGradient id="paint8_linear_2101_2918" x1="113.132" y1="210.139" x2="113.132" y2="182.114" gradientUnits="userSpaceOnUse">
<stop stop-color="#4B4B4B"/>
<stop offset="1"/>
</linearGradient>
<linearGradient id="paint9_linear_2101_2918" x1="37.1554" y1="176.722" x2="56.168" y2="157.71" gradientUnits="userSpaceOnUse">
<stop stop-color="#4B4B4B"/>
<stop offset="1"/>
</linearGradient>
<linearGradient id="paint10_linear_2101_2918" x1="168.603" y1="132.187" x2="168.603" y2="177.346" gradientUnits="userSpaceOnUse">
<stop stop-color="#4B4B4B"/>
<stop offset="1"/>
</linearGradient>
<linearGradient id="paint11_linear_2101_2918" x1="193.247" y1="179.493" x2="167.997" y2="154.243" gradientUnits="userSpaceOnUse">
<stop stop-color="#4B4B4B"/>
<stop offset="1"/>
</linearGradient>
<linearGradient id="paint12_linear_2101_2918" x1="110.835" y1="185.12" x2="110.835" y2="130.628" gradientUnits="userSpaceOnUse">
<stop stop-color="#4B4B4B"/>
<stop offset="1"/>
</linearGradient>
<linearGradient id="paint13_linear_2101_2918" x1="113.132" y1="233.29" x2="113.132" y2="138.437" gradientUnits="userSpaceOnUse">
<stop stop-color="#FCFFFF"/>
<stop offset="0.2334" stop-color="#4B4B4B"/>
<stop offset="1"/>
</linearGradient>
<linearGradient id="paint14_linear_2101_2918" x1="84.9884" y1="83.4849" x2="71.1286" y2="150.763" gradientUnits="userSpaceOnUse">
<stop stop-color="white"/>
<stop offset="1" stop-color="white" stop-opacity="0"/>
</linearGradient>
<linearGradient id="paint15_linear_2101_2918" x1="110.289" y1="135.068" x2="110.289" y2="122.498" gradientUnits="userSpaceOnUse">
<stop stop-color="#4B4B4B"/>
<stop offset="1"/>
</linearGradient>
<linearGradient id="paint16_linear_2101_2918" x1="15.416" y1="88.7397" x2="15.416" y2="120.279" gradientUnits="userSpaceOnUse">
<stop stop-color="#4B4B4B"/>
<stop offset="1"/>
</linearGradient>
<linearGradient id="paint17_linear_2101_2918" x1="205.162" y1="88.7397" x2="205.162" y2="120.279" gradientUnits="userSpaceOnUse">
<stop stop-color="#4B4B4B"/>
<stop offset="1"/>
</linearGradient>
<linearGradient id="paint18_linear_2101_2918" x1="113.164" y1="81.1045" x2="113.164" y2="113.582" gradientUnits="userSpaceOnUse">
<stop stop-color="#FCFCFC"/>
<stop offset="1" stop-color="#969696"/>
</linearGradient>
<linearGradient id="paint19_linear_2101_2918" x1="113.655" y1="116.527" x2="113.655" y2="126.183" gradientUnits="userSpaceOnUse">
<stop stop-color="#FCFCFC"/>
<stop offset="1" stop-color="#969696"/>
</linearGradient>
</defs>
</svg>
