<svg width="361" height="360" viewBox="0 0 361 360" fill="none" xmlns="http://www.w3.org/2000/svg">
<path d="M314.348 221.644C305.554 249.871 288.049 274.589 264.343 292.256C240.637 309.923 211.946 319.631 182.383 319.99L181.441 242.285C194.594 242.125 207.359 237.806 217.907 229.946C228.454 222.085 236.242 211.087 240.155 198.529L314.348 221.644Z" fill="#704000"/>
<path d="M182.383 319.99C161.777 320.24 141.369 315.937 122.617 307.39C103.865 298.842 87.2314 286.26 73.9036 270.541C60.5758 254.823 50.8825 236.356 45.5157 216.459C40.1489 196.562 39.241 175.725 42.8567 155.437C46.4725 135.148 54.5227 115.908 66.4328 99.09C78.3429 82.2719 93.819 68.2906 111.756 58.1442C129.694 47.9978 149.65 41.9366 170.2 40.3932C190.75 38.8498 211.388 41.8623 230.64 49.2157L202.911 121.811C194.346 118.539 185.163 117.199 176.02 117.885C166.877 118.572 157.998 121.269 150.017 125.783C142.036 130.298 135.15 136.518 129.851 144.001C124.552 151.484 120.97 160.044 119.362 169.071C117.753 178.098 118.157 187.369 120.545 196.221C122.932 205.074 127.245 213.291 133.175 220.284C139.105 227.278 146.506 232.876 154.849 236.679C163.192 240.482 172.272 242.396 181.441 242.285L182.383 319.99Z" fill="#FEAC3E"/>
<path d="M229.267 48.6998C251.384 56.883 271.074 70.52 286.513 88.3455C301.951 106.171 312.636 127.607 317.577 150.665L241.592 166.948C239.393 156.689 234.639 147.152 227.77 139.221C220.902 131.29 212.141 125.222 202.301 121.581L229.267 48.6998Z" fill="#D78921"/>
<path d="M317.263 149.233C322.665 173.214 321.657 198.193 314.343 221.661L240.153 198.536C243.407 188.095 243.855 176.981 241.452 166.311L317.263 149.233Z" fill="#9F5E07"/>
</svg>
