<svg width="135" height="29" viewBox="0 0 135 29" fill="none" xmlns="http://www.w3.org/2000/svg">
  <rect width="135" height="29" fill="transparent" />
  <path
    d="M250.17 86.5C250.17 92.0228 245.693 96.5 240.17 96.5H-98C-103.523 96.5 -108 92.0228 -108 86.5V38.5C-108 32.9772 -103.523 28.5 -98 28.5H-18.4575H7.06372C14.9338 28.5 21.3137 22.1201 21.3137 14.25V14.25C21.3137 6.37994 27.6937 0 35.5637 0H71.085H106.606C114.476 0 120.856 6.37994 120.856 14.25V14.25C120.856 22.1201 127.236 28.5 135.106 28.5H160.627H240.17C245.693 28.5 250.17 32.9772 250.17 38.5V86.5Z"
    fill="black" />
</svg>